<svg width="60" height="60" fill="none" xmlns="http://www.w3.org/2000/svg"><path d="M17.5 27.5v5h25v-5c0-4.65 3.2-8.525 7.5-9.65V15c0-4.125-3.375-7.5-7.5-7.5h-25c-4.125 0-7.5 3.375-7.5 7.5v2.85c4.3 1.125 7.5 5 7.5 9.65z" fill="#4A1B6E"/><path d="M52.5 22.5c-2.75 0-5 2.25-5 5v10h-35v-10c0-2.75-2.25-5-5-5s-5 2.25-5 5V40c0 4.125 3.375 7.5 7.5 7.5V50c0 1.375 1.125 2.5 2.5 2.5S15 51.375 15 50v-2.5h30V50c0 1.375 1.125 2.5 2.5 2.5S50 51.375 50 50v-2.5c4.125 0 7.5-3.375 7.5-7.5V27.5c0-2.75-2.25-5-5-5z" fill="#4A1B6E"/></svg>