<svg width="115" height="42" fill="none" xmlns="http://www.w3.org/2000/svg"><path d="M34.948 23.44h2.97v1.168c1.273-1.407 2.727-1.497 3.455-1.497 2.364 0 3.364 1.168 3.758 1.706.485.689.788 1.557.788 3.502v7.723h-2.97v-7.004c0-3.203-1.213-3.293-2.334-3.293-1.334 0-2.697.18-2.697 4.25v6.047h-2.97V23.44zm17.79 2.694v9.907h-2.97v-9.907h-1.243V23.44h1.243v-4.61h2.97v4.61h2.273v2.694h-2.273zm4.272-2.694h2.97v1.138c.334-.39.819-.808 1.243-1.048.576-.33 1.152-.419 1.818-.419.728 0 1.516.12 2.334.599l-1.212 2.664c-.667-.42-1.212-.45-1.515-.45-.637 0-1.273.09-1.849.69-.818.867-.818 2.064-.818 2.903v6.525h-2.97V23.44z" fill="#22224C"/><path d="M68.557 20.118c1.055 0 1.91-.844 1.91-1.886a1.898 1.898 0 00-1.91-1.886c-1.054 0-1.91.845-1.91 1.886 0 1.042.856 1.886 1.91 1.886z" fill="#345AA6"/><path d="M70.042 23.44h-2.97v12.601h2.97v-12.6zm6.728-9.219v13.44l4.152-4.22h3.94l-5.486 5.237 5.88 7.363h-3.758l-4.183-5.387-.545.538v4.85H73.8V14.22h2.97zm21.517 18.947c-.545.958-1.333 1.796-2.151 2.305-1.03.658-2.395.957-3.758.957-1.698 0-3.091-.419-4.304-1.616-1.212-1.197-1.879-2.933-1.879-4.82 0-1.945.697-3.83 2.03-5.177 1.061-1.048 2.455-1.707 4.274-1.707 2.03 0 3.333.869 4.091 1.647 1.637 1.676 1.788 4.01 1.788 5.328v.359h-9.153c.061.898.455 1.916 1.092 2.544.697.688 1.545.808 2.273.808.818 0 1.424-.18 2.03-.628.515-.39.91-.898 1.182-1.377l2.485 1.377zm-2.94-5.119a3.037 3.037 0 00-.909-1.706c-.394-.36-1.03-.718-2-.718-1.03 0-1.697.419-2.091.808-.424.39-.758.988-.91 1.616h5.91z" fill="#22224C"/><path d="M2.629 36.713h.579v3.386h-.58v-2.47l-1.56 2.47h-.58v-3.386h.58v2.472l1.56-2.472zm4.275 3.386h-.58v-1.446H4.77v1.446h-.582v-3.386h.582v1.467h1.556v-1.467h.579v3.386zm3.448-2.917H9.216V40.1h-.579v-2.917H7.523v-.47h2.83v.47zm1.718 2.98c-.459 0-.832-.15-1.12-.451-.288-.303-.432-.707-.432-1.211v-.107c0-.336.064-.635.19-.898.13-.265.31-.471.54-.62.23-.15.481-.225.75-.225.44 0 .783.145 1.027.435.244.29.366.705.366 1.246v.24h-2.294c.008.334.105.605.291.811a.927.927 0 00.713.307c.205 0 .378-.042.52-.125.142-.084.266-.194.372-.332l.354.275c-.284.436-.71.654-1.277.654zm-.072-3.036a.77.77 0 00-.588.256c-.159.17-.257.407-.294.714h1.696v-.044c-.017-.294-.096-.521-.238-.682a.725.725 0 00-.576-.244zm4.926 1.317c0 .516-.118.93-.354 1.246a1.133 1.133 0 01-.957.472c-.411 0-.735-.13-.97-.39v1.63h-.58v-4.688h.53l.028.375c.235-.292.563-.438.982-.438.407 0 .728.153.964.46.238.307.357.733.357 1.28v.053zm-.579-.066c0-.381-.081-.683-.244-.904a.786.786 0 00-.67-.332c-.35 0-.613.156-.788.467v1.618a.853.853 0 00.794.463.78.78 0 00.66-.329c.166-.221.248-.548.248-.983zm4.084 1.722h-.579v-1.446h-1.555v1.446h-.582v-3.386h.582v1.467h1.555v-1.467h.579v3.386zm2.338.062c-.46 0-.833-.15-1.12-.45-.289-.303-.433-.707-.433-1.211v-.107c0-.336.064-.635.191-.898.13-.265.31-.471.538-.62.232-.15.482-.225.752-.225.44 0 .782.145 1.026.435.244.29.366.705.366 1.246v.24h-2.294c.009.334.106.605.291.811a.927.927 0 00.714.307c.204 0 .378-.042.52-.125.141-.084.265-.194.372-.332l.353.275c-.283.436-.709.654-1.276.654zm-.072-3.035a.77.77 0 00-.589.256c-.158.17-.256.407-.294.714h1.696v-.044c-.016-.294-.096-.521-.238-.682a.725.725 0 00-.575-.244zm4.543.056h-1.135V40.1h-.58v-2.917H24.41v-.47h2.828v.47zm1.769 1.217H27.48v-.472h1.527v.472zm2.516.933l1.151-2.62h.723V40.1h-.579v-2.463L31.723 40.1h-.4l-1.118-2.516V40.1h-.579v-3.386h.751l1.146 2.619zm4.897.767a1.217 1.217 0 01-.081-.357c-.27.28-.59.42-.964.42-.334 0-.608-.095-.823-.282a.923.923 0 01-.32-.72c0-.353.134-.626.401-.82.27-.196.647-.294 1.133-.294h.564v-.266a.645.645 0 00-.182-.482c-.121-.121-.3-.182-.535-.182a.844.844 0 00-.52.157c-.14.104-.21.23-.21.378h-.581c0-.169.06-.331.178-.488.121-.158.284-.283.488-.375.207-.092.433-.138.68-.138.39 0 .695.098.916.294.221.194.336.462.344.804v1.559c0 .31.04.558.12.742v.05h-.608zm-.96-.442c.181 0 .353-.046.516-.14a.852.852 0 00.354-.367v-.694h-.454c-.71 0-1.064.207-1.064.622 0 .182.06.324.181.426a.698.698 0 00.466.153zm4.544-2.465h-1.562v2.907h-.582v-3.386h2.144v.478zm2.594 2.907a1.217 1.217 0 01-.082-.357c-.269.28-.59.42-.963.42-.334 0-.609-.095-.823-.282a.923.923 0 01-.32-.72c0-.353.134-.626.4-.82.27-.196.648-.294 1.134-.294h.563v-.266a.645.645 0 00-.181-.482c-.121-.121-.3-.182-.536-.182a.844.844 0 00-.52.157c-.139.104-.209.23-.209.378h-.582c0-.169.06-.331.178-.488.122-.158.284-.283.489-.375.206-.092.433-.138.679-.138.39 0 .696.098.917.294.22.194.336.462.344.804v1.559c0 .31.04.558.119.742v.05h-.607zm-.961-.442c.181 0 .354-.046.516-.14a.852.852 0 00.354-.367v-.694h-.454c-.71 0-1.064.207-1.064.622 0 .182.06.324.182.426a.698.698 0 00.466.153zm4.218-2.018a.446.446 0 00-.181-.376c-.121-.093-.287-.14-.498-.14a.814.814 0 00-.513.16c-.135.106-.203.23-.203.375h-.576a.87.87 0 01.37-.723c.245-.188.553-.282.922-.282.397 0 .706.086.927.257.22.169.331.41.331.726a.701.701 0 01-.137.42.937.937 0 01-.391.303c.394.133.591.396.591.788 0 .311-.12.557-.36.739-.24.181-.56.272-.96.272-.39 0-.713-.095-.968-.285a.925.925 0 01-.378-.776h.576c0 .165.073.307.219.426a.862.862 0 00.55.175c.222 0 .4-.051.535-.153a.476.476 0 00.204-.398c0-.19-.057-.325-.172-.407-.113-.083-.29-.125-.529-.125h-.579v-.488h.629c.394-.01.591-.173.591-.488zm3.584-.926h.579v3.386h-.58v-2.47l-1.56 2.47h-.58v-3.386h.58v2.472l1.56-2.472zm4.275 3.386h-.58v-1.446H51.58v1.446h-.582v-3.386h.582v1.467h1.556v-1.467h.579v3.386zm3.711-2.973a.798.798 0 00-.538.197.601.601 0 00-.226.466h-.55c0-.194.061-.38.184-.557a1.31 1.31 0 01.492-.422c.204-.107.417-.16.638-.16.44 0 .796.16 1.067.479.273.317.41.732.41 1.245v.097c0 .318-.063.608-.188.87a1.42 1.42 0 01-.522.608 1.4 1.4 0 01-.767.212c-.375 0-.688-.117-.939-.35a1.145 1.145 0 01-.375-.873h.55a.748.748 0 00.764.754.765.765 0 00.613-.288c.161-.192.254-.456.279-.792h-1.27v-.476h1.264c-.03-.304-.122-.548-.279-.732a.757.757 0 00-.607-.278zm4.991-.413v3.386h-.582v-2.907h-1.151l-.07 1.267c-.037.582-.135.998-.293 1.248-.157.25-.406.381-.748.392h-.232v-.51l.166-.013c.188-.02.322-.13.404-.325.081-.197.133-.56.156-1.09l.063-1.448h2.287zm2.335 3.448c-.459 0-.832-.15-1.12-.45-.288-.303-.432-.707-.432-1.211v-.107c0-.336.063-.635.19-.898.13-.265.31-.471.539-.62.231-.15.482-.225.751-.225.44 0 .782.145 1.026.435.245.29.367.705.367 1.246v.24h-2.294c.008.334.105.605.29.811a.927.927 0 00.714.307c.205 0 .378-.042.52-.125.142-.084.266-.194.372-.332l.354.275c-.284.436-.71.654-1.277.654zm-.072-3.035a.77.77 0 00-.588.256c-.159.17-.257.407-.294.714h1.696v-.044c-.017-.294-.096-.521-.238-.682a.725.725 0 00-.576-.244zm3.12 1.53h-.422v1.443h-.582v-3.386h.582v1.433h.378l1.14-1.433h.7l-1.34 1.627 1.453 1.759h-.735l-1.174-1.443zm4.923-1.474h-1.136V40.1h-.58v-2.917h-1.113v-.47h2.829v.47zm3.423 1.261c0 .516-.118.93-.353 1.246a1.133 1.133 0 01-.958.472c-.411 0-.734-.13-.97-.39v1.63h-.58v-4.688h.53l.028.375c.236-.292.563-.438.983-.438.406 0 .728.153.963.46.238.307.357.733.357 1.28v.053zm-.579-.066c0-.381-.081-.683-.244-.904a.786.786 0 00-.67-.332c-.35 0-.613.156-.788.467v1.618a.852.852 0 00.795.463.78.78 0 00.66-.329c.165-.221.247-.548.247-.983zm1.164-.003c0-.331.065-.63.194-.895.132-.265.313-.47.545-.613.234-.144.5-.216.798-.216.461 0 .833.16 1.117.479.286.32.429.744.429 1.274v.04c0 .33-.064.626-.191.889-.125.26-.306.464-.541.61a1.49 1.49 0 01-.808.22c-.459 0-.831-.16-1.117-.48-.284-.319-.426-.741-.426-1.267v-.04zm.582.07c0 .375.087.676.26.904a.84.84 0 00.701.34.832.832 0 00.701-.344c.173-.231.26-.554.26-.97 0-.371-.089-.671-.266-.9a.835.835 0 00-.701-.348.831.831 0 00-.692.34c-.175.228-.263.554-.263.977zm5.674-1.262H81.85V40.1h-.579v-2.917h-1.114v-.47h2.83v.47zm3.424 1.261c0 .516-.118.93-.354 1.246a1.133 1.133 0 01-.957.472c-.412 0-.735-.13-.97-.39v1.63h-.58v-4.688h.53l.028.375c.235-.292.563-.438.982-.438.407 0 .728.153.964.46.238.307.357.733.357 1.28v.053zm-.58-.066c0-.381-.08-.683-.243-.904a.786.786 0 00-.67-.332c-.35 0-.613.156-.789.467v1.618a.853.853 0 00.795.463.78.78 0 00.66-.329c.165-.221.248-.548.248-.983zm3.41 1.723a1.214 1.214 0 01-.082-.357c-.269.28-.59.42-.963.42-.334 0-.609-.095-.823-.282a.923.923 0 01-.32-.72c0-.353.134-.626.4-.82.27-.196.648-.294 1.134-.294h.563v-.266a.645.645 0 00-.181-.482c-.121-.121-.3-.182-.536-.182a.844.844 0 00-.52.157c-.139.104-.209.23-.209.378h-.582c0-.169.06-.331.178-.488.121-.158.284-.283.489-.375.206-.092.433-.138.679-.138.39 0 .696.098.917.294.22.194.336.462.344.804v1.559c0 .31.04.558.119.742v.05h-.607zm-.961-.442c.181 0 .354-.046.516-.14a.852.852 0 00.354-.367v-.694h-.454c-.71 0-1.064.207-1.064.622 0 .182.06.324.182.426a.698.698 0 00.466.153zm5.123.442h-.58v-1.446h-1.554V40.1h-.582v-3.386h.582v1.467h1.555v-1.467h.579V40.1zm2.29-.41a.834.834 0 00.542-.188.66.66 0 00.257-.47h.547a1.05 1.05 0 01-.2.555 1.317 1.317 0 01-.494.419 1.413 1.413 0 01-.651.156c-.461 0-.829-.153-1.102-.46-.271-.309-.407-.73-.407-1.264v-.097c0-.33.06-.623.182-.88.12-.256.294-.455.52-.597.227-.142.495-.213.803-.213.38 0 .695.114.946.341.252.228.387.523.403.886h-.547a.79.79 0 00-.25-.538.766.766 0 00-.551-.213c-.295 0-.523.106-.686.319-.16.21-.24.516-.24.917v.11c0 .39.08.69.24.9.16.211.39.317.689.317zm4.767.41h-.58v-2.907H98.32V40.1h-.582v-3.386h2.72V40.1zm.776-1.725c0-.331.065-.63.194-.895.131-.265.313-.47.544-.613.234-.144.5-.216.798-.216.461 0 .834.16 1.118.479.285.32.428.744.428 1.274v.04c0 .33-.063.626-.191.889-.125.26-.305.464-.541.61-.234.146-.503.22-.807.22-.459 0-.832-.16-1.118-.48-.283-.319-.425-.741-.425-1.267v-.04zm.582.07c0 .375.086.676.26.904a.84.84 0 00.701.34.834.834 0 00.701-.344c.173-.231.259-.554.259-.97 0-.371-.088-.671-.266-.9a.835.835 0 00-.701-.348.831.831 0 00-.691.34c-.175.228-.263.554-.263.977zm6.087 0c0 .514-.118.93-.354 1.245a1.134 1.134 0 01-.958.472c-.411 0-.734-.13-.97-.39v1.63h-.579v-4.688h.529l.028.375c.236-.292.564-.438.983-.438.407 0 .728.153.964.46.238.307.357.733.357 1.28v.053zm-.579-.067c0-.381-.082-.683-.244-.904a.787.787 0 00-.67-.332c-.351 0-.613.156-.789.467v1.618a.852.852 0 00.795.463c.278 0 .498-.11.66-.329.165-.221.248-.548.248-.983zm3.583-1.195h-1.136V40.1h-.579v-2.917h-1.114v-.47h2.829v.47zm2.604 2.917a1.197 1.197 0 01-.082-.357c-.269.28-.59.42-.964.42-.333 0-.608-.095-.823-.282a.925.925 0 01-.319-.72c0-.353.134-.626.401-.82.269-.196.646-.294 1.133-.294h.563v-.266a.645.645 0 00-.182-.482c-.121-.121-.299-.182-.535-.182a.842.842 0 00-.519.157c-.14.104-.21.23-.21.378h-.582c0-.169.059-.331.178-.488.121-.158.284-.283.489-.375.206-.092.432-.138.679-.138.39 0 .695.098.917.294.221.194.335.462.344.804v1.559c0 .31.039.558.119.742v.05h-.607zm-.961-.442c.181 0 .353-.046.516-.14a.851.851 0 00.354-.367v-.694h-.454c-.709 0-1.064.207-1.064.622 0 .182.061.324.182.426a.697.697 0 00.466.153z" fill="#345AA6"/><path d="M24.708 20.298c.31 0 .56-.248.56-.554a.557.557 0 00-.56-.553.557.557 0 00-.561.553c0 .306.251.554.56.554z" fill="#22224C"/><path d="M0 35.987h7.275l9.034-9.325H26.3v9.325h6.015V0L0 35.987zm23.271-13.19c-2.411 0-4.178-1.122-4.178-1.868 0-.689 3.019-3.288 5.39-3.525v-2.066l-3-1.093v-.872l3.505 1.633-.112 2.381c.466.005.854.08 1.18.202l.442-1.963-2.687-1.712.082-.365.002.001.106-.48 3.07 2.337-.632 2.327.018.052c.971.596 1.18 1.743 1.18 2.66 0 1.299-1.955 2.35-4.366 2.35z" fill="#22224C"/></svg>