<svg width="24" height="24" fill="none" xmlns="http://www.w3.org/2000/svg"><g clip-path="url(#clip0)"><path d="M20.51 16.21l-2.512-2.512c-.897-.897-2.422-.538-2.78.628-.27.808-1.167 1.256-1.975 1.077-1.794-.449-4.216-2.781-4.665-4.665-.269-.808.27-1.705 1.077-1.974 1.166-.359 1.525-1.884.628-2.781L7.771 3.47c-.718-.628-1.794-.628-2.422 0L3.644 5.176C1.94 6.97 3.824 11.725 8.04 15.94c4.217 4.216 8.971 6.19 10.766 4.396l1.704-1.705c.628-.717.628-1.794 0-2.422z" fill="#F36E0D"/></g><defs><clipPath id="clip0"><path fill="#fff" transform="translate(3 3)" d="M0 0h18v18H0z"/></clipPath></defs></svg>