<svg width="60" height="60" fill="none" xmlns="http://www.w3.org/2000/svg"><path d="M50 20h-7.5V10h-35c-2.75 0-5 2.25-5 5v27.5h5c0 4.15 3.35 7.5 7.5 7.5s7.5-3.35 7.5-7.5h15c0 4.15 3.35 7.5 7.5 7.5s7.5-3.35 7.5-7.5h5V30L50 20zM15 46.25a3.745 3.745 0 01-3.75-3.75A3.745 3.745 0 0115 38.75a3.745 3.745 0 013.75 3.75A3.745 3.745 0 0115 46.25zm33.75-22.5l4.9 6.25H42.5v-6.25h6.25zM45 46.25a3.745 3.745 0 01-3.75-3.75A3.745 3.745 0 0145 38.75a3.745 3.745 0 013.75 3.75A3.745 3.745 0 0145 46.25z" fill="#F36E0D"/></svg>